<svg width="43" height="36" viewBox="0 0 43 36" fill="none" xmlns="http://www.w3.org/2000/svg">
<path d="M41.799 9.36884L1.08846 9.36887L1.08843 34.8106L41.799 34.8106L41.799 9.36884Z" stroke="white"/>
<path d="M1.87302 9.77811L3.37386 12.8327C4.67649 15.4839 7.02005 17.1806 9.56775 17.3171L14.2823 17.5696C16.7322 17.7008 18.4769 20.5605 17.8056 23.3445V23.3445C17.0868 26.3255 19.1289 29.3195 21.7411 29.1144L29.23 28.5265C32.0181 28.3076 34.2209 31.4586 33.5208 34.6643V34.6643" stroke="white"/>
<path d="M11.8557 27.1831L9.04639 31.0046L6.36755 27.0944C4.88187 24.9258 6.46241 22.0111 9.12971 22.0006C11.8595 21.9899 13.4503 25.0141 11.8557 27.1831Z" fill="#124E78" stroke="white"/>
<path d="M10.7516 25.5528C10.7516 26.4249 10.0294 27.1319 9.1385 27.1319C8.2476 27.1319 7.52539 26.4249 7.52539 25.5528C7.52539 24.6807 8.2476 23.9737 9.1385 23.9737C10.0294 23.9737 10.7516 24.6807 10.7516 25.5528Z" fill="white"/>
<path d="M37.5188 11.7062L34.7095 15.5276L32.0306 11.6174C30.545 9.44886 32.1255 6.53415 34.7928 6.52367C37.5226 6.51295 39.1133 9.53716 37.5188 11.7062Z" fill="#124E78" stroke="white"/>
<path d="M36.4147 10.0759C36.4147 10.948 35.6925 11.655 34.8016 11.655C33.9107 11.655 33.1885 10.948 33.1885 10.0759C33.1885 9.20376 33.9107 8.49677 34.8016 8.49677C35.6925 8.49677 36.4147 9.20376 36.4147 10.0759Z" fill="white"/>
</svg>
