<svg width="15" height="15" viewBox="0 0 15 15" fill="none" xmlns="http://www.w3.org/2000/svg">
<path d="M14.8313 14.0136L11.7153 10.9042C12.815 9.59472 13.3668 7.91111 13.2556 6.20455C13.1444 4.498 12.3788 2.90026 11.1185 1.74457C9.85815 0.588879 8.20038 -0.0355327 6.49093 0.00156307C4.78148 0.0386588 3.15235 0.734398 1.9433 1.94367C0.734257 3.15295 0.0386514 4.7824 0.00156277 6.49217C-0.0355259 8.20195 0.588766 9.86003 1.74424 11.1206C2.8997 12.3812 4.49713 13.147 6.20336 13.2582C7.90959 13.3694 9.59288 12.8175 10.9022 11.7176L14.0109 14.8341C14.1209 14.9405 14.268 15 14.4211 15C14.5741 15 14.7212 14.9405 14.8313 14.8341C14.9394 14.7249 15 14.5775 15 14.4238C15 14.2702 14.9394 14.1227 14.8313 14.0136ZM1.18017 6.65051C1.18017 5.56862 1.50092 4.51103 2.10187 3.61148C2.70282 2.71192 3.55697 2.0108 4.55631 1.59678C5.55566 1.18276 6.6553 1.07443 7.7162 1.2855C8.77709 1.49656 9.75159 2.01754 10.5165 2.78255C11.2813 3.54756 11.8022 4.52224 12.0132 5.58334C12.2242 6.64444 12.1159 7.7443 11.702 8.74383C11.2881 9.74336 10.5871 10.5977 9.68769 11.1987C8.7883 11.7998 7.73092 12.1206 6.64924 12.1206C5.19933 12.1187 3.80936 11.5418 2.78412 10.5164C1.75889 9.49093 1.18207 8.10069 1.18017 6.65051Z" fill="#535353"/>
</svg>
